<?xml version="1.0" standalone="no"?>
<!DOCTYPE svg PUBLIC "-//W3C//DTD SVG 20010904//EN"
 "http://www.w3.org/TR/2001/REC-SVG-20010904/DTD/svg10.dtd">
<svg version="1.0" xmlns="http://www.w3.org/2000/svg"
 width="360.000000pt" height="288.000000pt" viewBox="0 0 360.000000 288.000000"
 preserveAspectRatio="xMidYMid meet">

<g transform="translate(0.000000,288.000000) scale(0.100000,-0.100000)"
fill="#000000" stroke="none">
<path d="M499 2701 c-52 -10 -94 -45 -113 -91 -14 -36 -16 -143 -16 -1043 0
-955 1 -1004 19 -1043 11 -24 33 -50 53 -62 32 -20 49 -22 189 -22 85 0 159
-4 165 -8 6 -4 14 -18 17 -32 4 -14 16 -40 27 -58 l20 -33 93 3 92 3 32 63
c36 70 41 66 -57 62 l-45 -1 0 103 c0 90 -3 109 -25 152 -14 27 -34 56 -46 63
-18 12 -24 11 -47 -7 -38 -30 -61 -115 -60 -223 0 -79 -2 -86 -16 -73 -11 10
-52 15 -141 18 -137 4 -172 15 -206 65 -18 27 -19 65 -22 1021 -3 1100 -7
1036 62 1085 28 20 42 22 166 22 132 0 135 0 138 -22 7 -48 31 -53 252 -53
224 0 241 4 254 56 l7 26 132 -4 c120 -3 135 -5 166 -27 59 -42 61 -55 61
-421 0 -181 3 -330 8 -330 32 1 33 15 30 366 -3 347 -3 349 -26 382 -50 69
-30 67 -607 68 -286 1 -536 -1 -556 -5z m420 -2007 c31 -39 44 -100 39 -185
-6 -95 -31 -153 -70 -157 -23 -3 -30 3 -48 38 -42 82 -36 245 12 305 25 32 41
32 67 -1z"/>
<path d="M870 605 c-20 -24 -19 -120 1 -141 14 -14 17 -13 29 1 7 9 15 37 18
63 3 36 0 53 -15 71 -18 21 -20 22 -33 6z"/>
<path d="M583 2068 c-32 -15 -55 -71 -48 -111 4 -19 24 -57 46 -86 21 -28 39
-56 39 -61 0 -17 9 -12 40 23 47 51 83 130 75 166 -14 63 -91 98 -152 69z
m110 -30 c26 -30 22 -73 -9 -97 -53 -42 -124 -10 -124 54 0 68 88 96 133 43z"/>
<path d="M1681 1891 c-19 -12 -4 -31 25 -31 17 0 24 5 24 20 0 21 -24 27 -49
11z m29 -11 c0 -5 -2 -10 -4 -10 -3 0 -8 5 -11 10 -3 6 -1 10 4 10 6 0 11 -4
11 -10z"/>
<path d="M1808 1890 c38 -9 84 -48 75 -63 -3 -6 -1 -7 5 -3 17 10 44 -50 49
-114 7 -73 -23 -132 -108 -215 -33 -32 -65 -68 -71 -78 -9 -18 -11 -18 -36 4
-26 23 -26 22 1 -6 l28 -30 75 80 c115 122 134 156 134 234 0 51 -5 73 -25
107 -28 48 -97 95 -136 93 -19 -1 -17 -3 9 -9z"/>
<path d="M1626 1871 c-4 -5 3 -7 14 -4 23 6 26 13 6 13 -8 0 -17 -4 -20 -9z"/>
<path d="M1587 1842 c-15 -16 -15 -19 -2 -19 8 0 13 3 10 5 -3 3 0 11 6 19 17
20 5 16 -14 -5z"/>
<path d="M1790 1834 c19 -8 43 -23 55 -32 19 -16 19 -16 6 1 -16 21 -63 47
-83 47 -7 -1 3 -8 22 -16z"/>
<path d="M1649 1823 c-13 -17 -13 -17 6 -3 11 8 22 16 24 17 2 2 0 3 -6 3 -6
0 -17 -8 -24 -17z"/>
<path d="M1555 1799 c-4 -6 -5 -12 -2 -15 2 -3 7 2 10 11 7 17 1 20 -8 4z"/>
<path d="M1606 1783 c-6 -14 -5 -15 5 -6 7 7 10 15 7 18 -3 3 -9 -2 -12 -12z"/>
<path d="M1866 1767 c3 -10 9 -15 12 -12 3 3 0 11 -7 18 -10 9 -11 8 -5 -6z"/>
<path d="M1541 1754 c0 -11 3 -14 6 -6 3 7 2 16 -1 19 -3 4 -6 -2 -5 -13z"/>
<path d="M1580 1706 c0 -30 3 -57 8 -59 4 -3 7 22 7 54 0 32 -3 59 -7 59 -5 0
-8 -24 -8 -54z"/>
<path d="M1880 1690 c0 -45 -4 -54 -39 -89 -49 -49 -95 -60 -154 -37 -37 14
-40 14 -26 1 9 -9 41 -19 72 -22 l56 -6 50 51 c48 48 51 55 51 102 0 27 -2 50
-5 50 -3 0 -5 -22 -5 -50z"/>
<path d="M1532 1705 c0 -16 2 -22 5 -12 2 9 2 23 0 30 -3 6 -5 -1 -5 -18z"/>
<path d="M1540 1644 c0 -10 5 -26 10 -34 8 -11 9 -7 4 15 -8 37 -14 45 -14 19z"/>
<path d="M1650 1426 c0 -59 2 -66 20 -66 17 0 20 7 20 41 0 26 -7 50 -20 66
l-20 26 0 -67z"/>
<path d="M1650 1297 c0 -20 4 -37 10 -37 5 0 7 14 3 33 -8 45 -13 47 -13 4z"/>
<path d="M1690 1311 c5 -9 4 -23 0 -32 -7 -13 -4 -16 18 -16 25 0 28 4 28 32
0 28 -3 32 -27 32 -23 0 -26 -3 -19 -16z"/>
<path d="M1776 1301 c-21 -39 -21 -37 18 -37 l34 0 -15 31 c-9 16 -17 32 -19
33 -1 2 -10 -10 -18 -27z"/>
<path d="M1840 1321 c0 -6 5 -13 11 -17 6 -3 9 -15 6 -25 -3 -11 -1 -19 4 -19
5 0 9 11 9 25 0 14 5 25 10 25 6 0 10 5 10 10 0 6 -11 10 -25 10 -14 0 -25 -4
-25 -9z"/>
<path d="M1280 1164 c-110 -26 -250 -101 -250 -135 0 -37 70 -65 211 -85 l46
-6 6 54 c3 29 15 82 27 117 11 35 20 64 18 66 -2 1 -28 -4 -58 -11z"/>
<path d="M1351 1123 c-25 -67 -44 -174 -33 -185 4 -3 46 -10 93 -14 l85 -6 -4
34 c-4 40 11 56 62 65 53 8 80 -3 111 -47 15 -22 30 -38 32 -36 6 6 -72 122
-106 159 -35 39 -85 63 -156 76 -32 6 -60 11 -61 11 -1 0 -11 -26 -23 -57z"/>
<path d="M1750 1148 c-52 -5 -99 -13 -103 -17 -5 -5 33 -52 85 -105 l93 -96
460 0 c252 0 455 4 450 8 -33 28 -220 141 -293 176 l-87 41 -255 1 c-140 1
-298 -3 -350 -8z"/>
<path d="M1190 860 c0 -13 7 -20 20 -20 13 0 20 7 20 20 0 13 -7 20 -20 20
-13 0 -20 -7 -20 -20z"/>
<path d="M1274 865 c-7 -18 3 -35 22 -35 8 0 14 -9 14 -20 0 -13 7 -20 20 -20
13 0 20 7 20 20 0 13 7 20 20 20 13 0 20 7 20 20 0 13 -7 20 -20 20 -13 0 -20
-7 -20 -20 0 -13 -7 -20 -20 -20 -13 0 -20 7 -20 19 0 23 -29 36 -36 16z"/>
<path d="M1230 809 c0 -14 5 -19 17 -17 26 5 29 38 4 38 -15 0 -21 -6 -21 -21z"/>
<path d="M1914 749 c-44 -12 -99 -70 -118 -125 -19 -56 -21 -194 -4 -262 16
-63 93 -163 139 -179 19 -7 75 -12 125 -12 99 -1 114 5 149 62 19 30 16 31
-32 18 l-32 -9 -3 146 c-4 172 -22 232 -91 307 -46 50 -86 66 -133 54z m107
-120 c80 -86 77 -293 -6 -376 -18 -18 -40 -33 -49 -33 -71 0 -129 96 -130 214
0 89 16 147 55 191 42 47 88 49 130 4z"/>
<path d="M1914 503 c-30 -70 5 -164 54 -149 28 9 45 58 40 111 -7 54 -22 75
-55 75 -18 0 -28 -9 -39 -37z"/>
<path d="M2130 687 c0 -33 6 -49 23 -65 13 -12 27 -22 31 -22 5 0 -2 8 -14 18
-16 13 -23 30 -24 58 l-1 39 106 3 c122 3 140 -6 142 -77 2 -53 17 -53 17 -1
0 30 -7 47 -25 65 -23 24 -30 25 -140 25 l-115 0 0 -43z"/>
<path d="M3101 711 c-31 -31 -40 -111 -13 -111 4 0 6 17 4 38 -3 27 2 43 18
60 19 20 30 22 125 22 l105 0 0 -37 c0 -24 -8 -45 -22 -61 l-23 -25 22 12 c23
12 49 82 39 107 -4 11 -31 14 -121 14 -101 0 -117 -2 -134 -19z"/>
<path d="M3075 559 c-77 -5 -269 -12 -427 -17 l-288 -7 -27 -29 -28 -28 275 6
c291 7 722 26 729 32 2 2 -1 15 -7 29 -13 28 2 27 -227 14z"/>
<path d="M3337 483 c-3 -4 -10 -27 -16 -50 -10 -37 -16 -43 -47 -49 -31 -6
-40 -3 -65 22 l-29 29 -172 -8 -173 -8 -35 -35 c-35 -33 -37 -34 -124 -34
l-88 0 -62 48 -61 48 -85 1 -86 1 -30 -87 -31 -86 406 0 c311 0 409 -3 419
-12 9 -9 48 -13 117 -13 115 0 121 3 155 71 16 30 18 44 10 65 -8 19 -7 37 1
61 10 32 8 55 -4 36z"/>
</g>
</svg>
