<svg width="365" height="284" viewBox="0 0 365 284" fill="none" xmlns="http://www.w3.org/2000/svg">
<g filter="url(#filter0_d_48_947)">
<path d="M21.45 191.324C21.4038 191.324 21.3596 191.306 21.3269 191.273C21.2942 191.24 21.2759 191.196 21.2759 191.15V187.748C21.2759 187.701 21.2942 187.657 21.3269 187.624C21.3595 187.592 21.4038 187.573 21.45 187.573C21.4962 187.573 21.5405 187.592 21.5732 187.624C21.6058 187.657 21.6242 187.701 21.6242 187.748V191.15C21.6242 191.196 21.6058 191.24 21.5732 191.273C21.5405 191.306 21.4962 191.324 21.45 191.324Z" fill="#CCCCCC"/>
<path d="M21.4502 190.155C21.4086 190.155 21.3683 190.14 21.3368 190.113L19.247 188.316C19.2294 188.301 19.2149 188.283 19.2044 188.263C19.1938 188.242 19.1875 188.22 19.1856 188.197C19.1838 188.174 19.1865 188.151 19.1936 188.129C19.2007 188.107 19.2121 188.087 19.2271 188.069C19.242 188.052 19.2603 188.037 19.2809 188.027C19.3014 188.017 19.3238 188.01 19.3468 188.009C19.3697 188.007 19.3927 188.01 19.4145 188.017C19.4364 188.025 19.4565 188.036 19.4738 188.051L21.5637 189.848C21.5907 189.871 21.6099 189.902 21.6189 189.937C21.6278 189.971 21.6259 190.008 21.6136 190.041C21.6012 190.075 21.5789 190.103 21.5497 190.124C21.5205 190.144 21.4857 190.155 21.4502 190.155L21.4502 190.155Z" fill="#CCCCCC"/>
<path d="M34.8601 191.203C34.8614 189.492 35.5409 187.852 36.7492 186.642C37.9575 185.433 39.5957 184.753 41.3038 184.753C43.012 184.753 44.6502 185.433 45.8585 186.642C47.0668 187.852 47.7462 189.492 47.7476 191.203" fill="#F2F2F2"/>
<path d="M41.3038 191.203C41.2576 191.203 41.2133 191.185 41.1806 191.152C41.148 191.12 41.1296 191.075 41.1296 191.029V187.627C41.1296 187.581 41.148 187.536 41.1806 187.504C41.2133 187.471 41.2576 187.453 41.3038 187.453C41.35 187.453 41.3943 187.471 41.4269 187.504C41.4596 187.536 41.4779 187.581 41.4779 187.627V191.029C41.4779 191.075 41.4596 191.12 41.4269 191.152C41.3943 191.185 41.35 191.203 41.3038 191.203Z" fill="#CCCCCC"/>
<path d="M41.3038 190.034C41.2622 190.034 41.222 190.019 41.1904 189.992L39.1006 188.195C39.083 188.181 39.0685 188.162 39.0579 188.142C39.0474 188.121 39.041 188.099 39.0391 188.076C39.0373 188.053 39.04 188.03 39.0471 188.008C39.0542 187.986 39.0656 187.966 39.0806 187.948C39.0956 187.931 39.1139 187.916 39.1344 187.906C39.155 187.896 39.1774 187.89 39.2004 187.888C39.2233 187.886 39.2464 187.889 39.2682 187.897C39.29 187.904 39.3101 187.915 39.3275 187.931L41.4173 189.727C41.4443 189.751 41.4636 189.782 41.4725 189.816C41.4814 189.851 41.4796 189.887 41.4672 189.92C41.4548 189.954 41.4325 189.983 41.4033 190.003C41.3741 190.023 41.3394 190.034 41.3038 190.034L41.3038 190.034Z" fill="#CCCCCC"/>
<path d="M24.6465 238.521C30.8662 238.521 35.9082 237.343 35.9082 235.889C35.9082 234.435 30.8662 233.257 24.6465 233.257C18.4268 233.257 13.3848 234.435 13.3848 235.889C13.3848 237.343 18.4268 238.521 24.6465 238.521Z" fill="#F2F2F2"/>
<path d="M86.0569 204.701C86.1972 204.701 86.3319 204.644 86.4311 204.544C86.5303 204.444 86.5861 204.308 86.5861 204.166C86.5861 204.025 86.5303 203.889 86.4311 203.788C86.3319 203.688 86.1972 203.632 86.0569 203.632H81.0298V201.495H86.0569C86.1972 201.495 86.3319 201.438 86.4311 201.338C86.5303 201.238 86.5861 201.102 86.5861 200.96C86.5861 200.818 86.5303 200.683 86.4311 200.582C86.3319 200.482 86.1972 200.426 86.0569 200.426H43.1944C43.0541 200.426 42.9195 200.482 42.8203 200.582C42.721 200.683 42.6653 200.818 42.6653 200.96C42.6653 201.102 42.721 201.238 42.8203 201.338C42.9195 201.438 43.0541 201.495 43.1944 201.495H48.2215V203.632H43.1944C43.0541 203.632 42.9195 203.688 42.8203 203.788C42.721 203.889 42.6653 204.025 42.6653 204.166C42.6653 204.308 42.721 204.444 42.8203 204.544C42.9195 204.644 43.0541 204.701 43.1944 204.701H48.2215V206.838H43.1944C43.0541 206.838 42.9195 206.894 42.8203 206.995C42.721 207.095 42.6653 207.231 42.6653 207.372C42.6653 207.514 42.721 207.65 42.8203 207.75C42.9195 207.851 43.0541 207.907 43.1944 207.907H48.2215V210.044H43.7236C43.4429 210.044 43.1738 210.157 42.9753 210.357C42.7768 210.558 42.6653 210.83 42.6653 211.113C42.6653 211.396 42.7768 211.668 42.9753 211.869C43.1738 212.069 43.4429 212.182 43.7236 212.182H48.0055C47.9743 212.267 47.9579 212.358 47.9569 212.449V219.93C47.9569 220.143 48.0406 220.346 48.1895 220.497C48.3383 220.647 48.5402 220.732 48.7507 220.732C48.9612 220.732 49.1631 220.647 49.312 220.497C49.4608 220.346 49.5444 220.143 49.5444 219.93V212.449C49.5435 212.358 49.5271 212.267 49.4959 212.182H79.7555C79.7243 212.267 79.7078 212.358 79.7069 212.449V219.93C79.7069 220.143 79.7906 220.346 79.9394 220.497C80.0883 220.647 80.2901 220.732 80.5007 220.732C80.7112 220.732 80.9131 220.647 81.0619 220.497C81.2108 220.346 81.2944 220.143 81.2944 219.93V212.449C81.2935 212.358 81.2771 212.267 81.2459 212.182H85.5277C85.8084 212.182 86.0776 212.069 86.2761 211.869C86.4746 211.668 86.5861 211.396 86.5861 211.113C86.5861 210.83 86.4746 210.558 86.2761 210.357C86.0776 210.157 85.8084 210.044 85.5277 210.044H81.0298V207.907H86.0569C86.1972 207.907 86.3319 207.851 86.4311 207.75C86.5303 207.65 86.5861 207.514 86.5861 207.372C86.5861 207.231 86.5303 207.095 86.4311 206.995C86.3319 206.894 86.1972 206.838 86.0569 206.838H81.0298V204.701H86.0569ZM49.2799 201.495H79.9715V203.632H49.2799V201.495ZM79.9715 210.044H49.2799V207.907H79.9715V210.044ZM79.9715 206.838H49.2799V204.701H79.9715V206.838Z" fill="#A2A2A2"/>
<path d="M349.405 192.529H4.32996C4.24245 192.529 4.15852 192.489 4.09664 192.419C4.03476 192.348 4 192.253 4 192.153C4 192.053 4.03476 191.958 4.09664 191.887C4.15852 191.816 4.24245 191.777 4.32996 191.777H349.405C349.493 191.777 349.577 191.816 349.639 191.887C349.701 191.958 349.735 192.053 349.735 192.153C349.735 192.253 349.701 192.348 349.639 192.419C349.577 192.489 349.493 192.529 349.405 192.529Z" fill="#E6E6E6"/>
<path d="M251.383 206.442H216.472C216.372 206.442 216.277 206.403 216.206 206.332C216.136 206.262 216.096 206.166 216.096 206.066C216.096 205.966 216.136 205.871 216.206 205.8C216.277 205.73 216.372 205.69 216.472 205.69H251.383C251.483 205.69 251.578 205.73 251.648 205.8C251.719 205.871 251.758 205.966 251.758 206.066C251.758 206.166 251.719 206.262 251.648 206.332C251.578 206.403 251.483 206.442 251.383 206.442Z" fill="#E6E6E6"/>
<path d="M274.014 69.3062C280.855 69.3062 286.402 63.7505 286.402 56.8971C286.402 50.0438 280.855 44.488 274.014 44.488C267.172 44.488 261.626 50.0438 261.626 56.8971C261.626 63.7505 267.172 69.3062 274.014 69.3062Z" fill="#FFFBE7"/>
<path d="M14.5003 95.8742C17.4539 86.6356 24.6659 79.4707 33.2188 75.2093C43.3668 70.1532 55.0279 69.5807 66.0465 71.5486C77.9411 73.6729 89.058 78.57 99.8188 83.9142C110.374 89.1561 120.758 94.6912 131.735 99.0231C153.649 107.659 176.876 112.478 200.411 113.273C221.595 113.981 244.244 111.656 262.383 99.7291C279.002 88.8008 289.578 70.7724 295.086 51.9797C295.791 49.5738 296.418 47.1473 296.966 44.7C297.126 43.9931 296.041 43.6913 295.88 44.4001C291.437 64.0244 281.963 83.42 265.775 95.9294C248.266 109.459 225.287 112.587 203.784 112.229C179.991 111.813 156.451 107.262 134.212 98.7805C122.953 94.4868 112.328 88.9114 101.568 83.5287C91.0443 78.2643 80.2249 73.3363 68.6526 70.9083C58.0856 68.6912 46.772 68.5561 36.5838 72.5013C28.1945 75.7499 20.5453 81.5403 16.0689 89.4613C14.9774 91.4026 14.0879 93.451 13.4144 95.5743C13.1928 96.2673 14.2798 96.564 14.5003 95.8742Z" fill="#FFFBE7"/>
<path d="M198.077 164.917C198.077 158.276 192.699 142.517 186.065 142.517C179.43 142.517 174.052 158.276 174.052 164.917C174.052 168.108 175.318 171.169 177.571 173.426C179.823 175.682 182.879 176.95 186.065 176.95C189.251 176.95 192.306 175.682 194.559 173.426C196.812 171.169 198.077 168.108 198.077 164.917H198.077Z" fill="#DCDDDC"/>
<path d="M195.074 164.917C195.074 158.276 189.696 142.517 183.062 142.517C176.427 142.517 171.049 158.276 171.049 164.917C171.049 168.108 172.315 171.169 174.567 173.426C176.82 175.682 179.876 176.95 183.062 176.95C186.248 176.95 189.303 175.682 191.556 173.426C193.809 171.169 195.074 168.108 195.074 164.917H195.074Z" fill="#EAECEB"/>
<path d="M183.437 191.822C183.337 191.822 183.242 191.783 183.171 191.712C183.101 191.642 183.062 191.546 183.062 191.446V157.927C183.062 157.827 183.101 157.731 183.171 157.661C183.242 157.59 183.337 157.551 183.437 157.551C183.536 157.551 183.632 157.59 183.702 157.661C183.773 157.731 183.812 157.827 183.812 157.927V191.446C183.812 191.546 183.773 191.642 183.702 191.712C183.632 191.783 183.536 191.822 183.437 191.822Z" fill="#CACACA"/>
<path d="M183.437 163.422C183.363 163.422 183.29 163.399 183.228 163.358C183.167 163.317 183.119 163.258 183.09 163.189C183.062 163.121 183.054 163.045 183.069 162.972C183.083 162.899 183.119 162.832 183.171 162.78L188.081 157.862C188.151 157.791 188.247 157.752 188.346 157.752C188.446 157.752 188.541 157.791 188.612 157.862C188.682 157.932 188.721 158.028 188.721 158.128C188.721 158.227 188.682 158.323 188.612 158.394L183.702 163.311C183.667 163.346 183.626 163.374 183.581 163.393C183.535 163.412 183.486 163.422 183.437 163.422Z" fill="#CACACA"/>
<path d="M85.9426 63.4777H79.9363C79.4885 63.4772 79.0591 63.2988 78.7424 62.9815C78.4257 62.6643 78.2476 62.2342 78.2471 61.7856V47.8723C78.2476 47.4237 78.4257 46.9936 78.7424 46.6763C79.0591 46.3591 79.4885 46.1807 79.9363 46.1802H85.9426C86.3905 46.1807 86.8198 46.3591 87.1365 46.6763C87.4532 46.9936 87.6314 47.4237 87.6319 47.8723V61.7856C87.6314 62.2342 87.4532 62.6643 87.1365 62.9815C86.8198 63.2988 86.3905 63.4772 85.9426 63.4777Z" fill="#FFFBE7"/>
<path d="M109.592 193.209H78.8102C77.9642 193.208 77.1532 192.871 76.555 192.272C75.9568 191.673 75.6203 190.86 75.6194 190.013V65.5459C75.6203 64.6985 75.9568 63.886 76.555 63.2868C77.1532 62.6876 77.9642 62.3506 78.8102 62.3496H109.592C110.438 62.3506 111.249 62.6876 111.847 63.2868C112.446 63.886 112.782 64.6985 112.783 65.5459V190.013C112.782 190.86 112.446 191.673 111.847 192.272C111.249 192.871 110.438 193.208 109.592 193.209Z" fill="#FFFBE7"/>
<path d="M91.1982 193.209H60.4162C59.5702 193.208 58.7592 192.871 58.161 192.272C57.5628 191.673 57.2263 190.86 57.2253 190.013V65.5459C57.2263 64.6985 57.5628 63.886 58.161 63.2868C58.7592 62.6876 59.5702 62.3506 60.4162 62.3496H91.1982C92.0442 62.3506 92.8553 62.6876 93.4534 63.2868C94.0516 63.886 94.3881 64.6985 94.3891 65.5459V190.013C94.3881 190.86 94.0516 191.673 93.4534 192.272C92.8553 192.871 92.0442 193.208 91.1982 193.209Z" fill="#FFFBE7"/>
<path d="M80.312 63.4777H74.3057C73.8578 63.4772 73.4285 63.2988 73.1118 62.9815C72.7951 62.6643 72.617 62.2342 72.6165 61.7856V47.8723C72.617 47.4237 72.7951 46.9936 73.1118 46.6763C73.4285 46.3591 73.8578 46.1807 74.3057 46.1802H80.312C80.7598 46.1807 81.1892 46.3591 81.5059 46.6763C81.8226 46.9936 82.0007 47.4237 82.0012 47.8723V61.7856C82.0007 62.2342 81.8226 62.6643 81.5059 62.9815C81.1892 63.2988 80.7598 63.4772 80.312 63.4777Z" fill="#FFFBE7"/>
<path d="M72.4286 90.5521H65.2961C65.0473 90.5518 64.8088 90.4527 64.6329 90.2764C64.4569 90.1002 64.358 89.8613 64.3577 89.612V78.7071C64.358 78.4578 64.4569 78.2189 64.6329 78.0426C64.8088 77.8664 65.0473 77.7673 65.2961 77.767H72.4286C72.6774 77.7673 72.9159 77.8664 73.0919 78.0426C73.2678 78.2189 73.3668 78.4578 73.3671 78.7071V89.612C73.3668 89.8613 73.2678 90.1002 73.0919 90.2764C72.9159 90.4527 72.6774 90.5518 72.4286 90.5521Z" fill="#FFF1B1"/>
<path d="M86.318 90.5521H79.1855C78.9367 90.5518 78.6982 90.4527 78.5223 90.2764C78.3463 90.1002 78.2474 89.8613 78.2471 89.612V78.7071C78.2474 78.4578 78.3463 78.2189 78.5223 78.0426C78.6982 77.8664 78.9367 77.7673 79.1855 77.767H86.318C86.5668 77.7673 86.8053 77.8664 86.9813 78.0426C87.1572 78.2189 87.2562 78.4578 87.2565 78.7071V89.612C87.2562 89.8613 87.1572 90.1002 86.9813 90.2764C86.8053 90.4527 86.5668 90.5518 86.318 90.5521Z" fill="#FFF1B1"/>
<path d="M72.4286 110.482H65.2961C65.0473 110.482 64.8088 110.382 64.6329 110.206C64.4569 110.03 64.358 109.791 64.3577 109.542V98.6369C64.358 98.3876 64.4569 98.1487 64.6329 97.9724C64.8088 97.7962 65.0473 97.6971 65.2961 97.6968H72.4286C72.6774 97.6971 72.9159 97.7962 73.0919 97.9724C73.2678 98.1487 73.3668 98.3876 73.3671 98.6369V109.542C73.3668 109.791 73.2678 110.03 73.0919 110.206C72.9159 110.382 72.6774 110.482 72.4286 110.482Z" fill="#FFF1B1"/>
<path d="M86.318 110.482H79.1855C78.9367 110.482 78.6982 110.382 78.5223 110.206C78.3463 110.03 78.2474 109.791 78.2471 109.542V98.6369C78.2474 98.3876 78.3463 98.1487 78.5223 97.9724C78.6982 97.7962 78.9367 97.6971 79.1855 97.6968H86.318C86.5668 97.6971 86.8053 97.7962 86.9813 97.9724C87.1572 98.1487 87.2562 98.3876 87.2565 98.6369V109.542C87.2562 109.791 87.1572 110.03 86.9813 110.206C86.8053 110.382 86.5668 110.482 86.318 110.482Z" fill="#FFF1B1"/>
<path d="M72.4286 130.412H65.2961C65.0473 130.411 64.8088 130.312 64.6329 130.136C64.4569 129.96 64.358 129.721 64.3577 129.472V118.567C64.358 118.317 64.4569 118.078 64.6329 117.902C64.8088 117.726 65.0473 117.627 65.2961 117.626H72.4286C72.6774 117.627 72.9159 117.726 73.0919 117.902C73.2678 118.078 73.3668 118.317 73.3671 118.567V129.472C73.3668 129.721 73.2678 129.96 73.0919 130.136C72.9159 130.312 72.6774 130.411 72.4286 130.412Z" fill="#FFF1B1"/>
<path d="M86.318 130.412H79.1855C78.9367 130.411 78.6982 130.312 78.5223 130.136C78.3463 129.96 78.2474 129.721 78.2471 129.472V118.567C78.2474 118.317 78.3463 118.078 78.5223 117.902C78.6982 117.726 78.9367 117.627 79.1855 117.626H86.318C86.5668 117.627 86.8053 117.726 86.9813 117.902C87.1572 118.078 87.2562 118.317 87.2565 118.567V129.472C87.2562 129.721 87.1572 129.96 86.9813 130.136C86.8053 130.312 86.5668 130.411 86.318 130.412Z" fill="#FFF1B1"/>
<path d="M72.4286 150.342H65.2961C65.0473 150.341 64.8088 150.242 64.6329 150.066C64.4569 149.89 64.358 149.651 64.3577 149.401V138.496C64.358 138.247 64.4569 138.008 64.6329 137.832C64.8088 137.656 65.0473 137.557 65.2961 137.556H72.4286C72.6774 137.557 72.9159 137.656 73.0919 137.832C73.2678 138.008 73.3668 138.247 73.3671 138.496V149.401C73.3668 149.651 73.2678 149.89 73.0919 150.066C72.9159 150.242 72.6774 150.341 72.4286 150.342Z" fill="#FFF1B1"/>
<path d="M86.318 150.342H79.1855C78.9367 150.341 78.6982 150.242 78.5223 150.066C78.3463 149.89 78.2474 149.651 78.2471 149.401V138.496C78.2474 138.247 78.3463 138.008 78.5223 137.832C78.6982 137.656 78.9367 137.557 79.1855 137.556H86.318C86.5668 137.557 86.8053 137.656 86.9813 137.832C87.1572 138.008 87.2562 138.247 87.2565 138.496V149.401C87.2562 149.651 87.1572 149.89 86.9813 150.066C86.8053 150.242 86.5668 150.341 86.318 150.342Z" fill="#FFF1B1"/>
<path d="M72.4286 170.271H65.2961C65.0473 170.271 64.8088 170.172 64.6329 169.996C64.4569 169.819 64.358 169.58 64.3577 169.331V158.426C64.358 158.177 64.4569 157.938 64.6329 157.762C64.8088 157.586 65.0473 157.486 65.2961 157.486H72.4286C72.6774 157.486 72.9159 157.586 73.0919 157.762C73.2678 157.938 73.3668 158.177 73.3671 158.426V169.331C73.3668 169.58 73.2678 169.819 73.0919 169.996C72.9159 170.172 72.6774 170.271 72.4286 170.271Z" fill="#FFF1B1"/>
<path d="M86.318 170.271H79.1855C78.9367 170.271 78.6982 170.172 78.5223 169.996C78.3463 169.819 78.2474 169.58 78.2471 169.331V158.426C78.2474 158.177 78.3463 157.938 78.5223 157.762C78.6982 157.586 78.9367 157.486 79.1855 157.486H86.318C86.5668 157.486 86.8053 157.586 86.9813 157.762C87.1572 157.938 87.2562 158.177 87.2565 158.426V169.331C87.2562 169.58 87.1572 169.819 86.9813 169.996C86.8053 170.172 86.5668 170.271 86.318 170.271Z" fill="#FFF1B1"/>
<path d="M240.979 129.283H234.973C234.525 129.283 234.096 129.104 233.779 128.787C233.462 128.47 233.284 128.04 233.284 127.591V119.695C233.284 119.246 233.462 118.816 233.779 118.499C234.096 118.181 234.525 118.003 234.973 118.002H240.979C241.427 118.003 241.856 118.181 242.173 118.499C242.49 118.816 242.668 119.246 242.668 119.695V127.591C242.668 128.04 242.49 128.47 242.173 128.787C241.856 129.104 241.427 129.283 240.979 129.283Z" fill="#FFFBE7"/>
<path d="M291.657 193.585H260.875C260.029 193.584 259.218 193.247 258.62 192.648C258.022 192.049 257.685 191.236 257.684 190.389V130.6C257.685 129.752 258.022 128.94 258.62 128.341C259.218 127.741 260.029 127.404 260.875 127.403H291.657C292.503 127.404 293.314 127.741 293.912 128.341C294.51 128.94 294.847 129.752 294.848 130.6V190.389C294.847 191.236 294.51 192.049 293.912 192.648C293.314 193.247 292.503 193.584 291.657 193.585Z" fill="#FFFBE7"/>
<path d="M273.263 193.585H219.957C219.111 193.584 218.3 193.247 217.702 192.648C217.104 192.049 216.768 191.236 216.767 190.389V130.6C216.768 129.752 217.104 128.94 217.702 128.341C218.3 127.741 219.111 127.404 219.957 127.403H273.263C274.109 127.404 274.92 127.741 275.518 128.341C276.116 128.94 276.453 129.752 276.454 130.6V190.389C276.453 191.236 276.116 192.049 275.518 192.648C274.92 193.247 274.109 193.584 273.263 193.585Z" fill="#FFFBE7"/>
<path d="M235.348 129.283H229.342C228.894 129.283 228.465 129.104 228.148 128.787C227.831 128.47 227.653 128.04 227.653 127.591V119.695C227.653 119.246 227.831 118.816 228.148 118.499C228.465 118.181 228.894 118.003 229.342 118.002H235.348C235.796 118.003 236.226 118.181 236.542 118.499C236.859 118.816 237.037 119.246 237.038 119.695V127.591C237.037 128.04 236.859 128.47 236.542 128.787C236.226 129.104 235.796 129.283 235.348 129.283Z" fill="#FFFBE7"/>
<path d="M243.232 156.922H236.099C235.85 156.922 235.612 156.823 235.436 156.646C235.26 156.47 235.161 156.231 235.161 155.982V145.077C235.161 144.828 235.26 144.589 235.436 144.413C235.612 144.236 235.85 144.137 236.099 144.137H243.232C243.48 144.137 243.719 144.236 243.895 144.413C244.071 144.589 244.17 144.828 244.17 145.077V155.982C244.17 156.231 244.071 156.47 243.895 156.646C243.719 156.823 243.48 156.922 243.232 156.922Z" fill="#FFF1B1"/>
<path d="M257.121 156.922H249.989C249.74 156.922 249.501 156.823 249.325 156.646C249.15 156.47 249.051 156.231 249.05 155.982V145.077C249.051 144.828 249.15 144.589 249.325 144.413C249.501 144.236 249.74 144.137 249.989 144.137H257.121C257.37 144.137 257.609 144.236 257.784 144.413C257.96 144.589 258.059 144.828 258.06 145.077V155.982C258.059 156.231 257.96 156.47 257.784 156.646C257.609 156.823 257.37 156.922 257.121 156.922Z" fill="#FFF1B1"/>
<path d="M243.232 176.852H236.099C235.85 176.851 235.612 176.752 235.436 176.576C235.26 176.4 235.161 176.161 235.161 175.912V165.007C235.161 164.757 235.26 164.519 235.436 164.342C235.612 164.166 235.85 164.067 236.099 164.067H243.232C243.48 164.067 243.719 164.166 243.895 164.342C244.071 164.519 244.17 164.757 244.17 165.007V175.912C244.17 176.161 244.071 176.4 243.895 176.576C243.719 176.752 243.48 176.851 243.232 176.852Z" fill="#FFF1B1"/>
<path d="M257.121 176.852H249.989C249.74 176.851 249.501 176.752 249.325 176.576C249.15 176.4 249.051 176.161 249.05 175.912V165.007C249.051 164.757 249.15 164.519 249.325 164.342C249.501 164.166 249.74 164.067 249.989 164.067H257.121C257.37 164.067 257.609 164.166 257.784 164.342C257.96 164.519 258.059 164.757 258.06 165.007V175.912C258.059 176.161 257.96 176.4 257.784 176.576C257.609 176.752 257.37 176.851 257.121 176.852Z" fill="#FFF1B1"/>
<path d="M184.939 35.2429C184.939 36.0185 184.914 36.7909 184.864 37.5541C184.58 41.9651 183.464 46.2827 181.576 50.28C181.561 50.314 181.545 50.3483 181.53 50.3792C181.443 50.5653 181.353 50.7485 181.26 50.9315C178.395 56.6847 174.012 61.547 168.585 64.9941C163.157 68.4411 156.891 70.3421 150.462 70.4918L150.813 90.5455L155.361 88.1504L156.175 89.6956L150.847 92.4969L151.465 127.87L151.496 191.965H148.009L148.044 127.87L149.102 70.495C144.443 70.4286 139.844 69.4379 135.571 67.5803C131.298 65.7226 127.437 63.0352 124.213 59.674C123.989 59.4444 123.772 59.2087 123.555 58.9728C123.545 58.9636 123.539 58.9542 123.533 58.948C120.845 56.0201 118.671 52.6595 117.103 49.008C117.137 49.0484 117.175 49.0825 117.209 49.1228C113.665 40.8446 113.425 31.5256 116.536 23.0758C119.647 14.626 125.875 7.68533 133.943 3.67637C134.064 3.61745 134.191 3.55837 134.312 3.49641C142.292 -0.344503 151.425 -1.04909 159.9 1.52232C168.375 4.09373 175.575 9.75342 180.07 17.3795C180.285 17.7392 180.493 18.1086 180.691 18.4777C183.485 23.6243 184.945 29.3879 184.939 35.2429Z" fill="#FFFBE7"/>
<path opacity="0.1" d="M287.86 225.89C287.86 225.947 287.817 226.021 287.687 226.109C287.56 226.194 287.367 226.28 287.111 226.363C286.601 226.529 285.859 226.679 284.937 226.806C283.095 227.06 280.547 227.217 277.731 227.217C274.915 227.217 272.367 227.06 270.525 226.806C269.603 226.679 268.861 226.529 268.351 226.363C268.095 226.28 267.902 226.194 267.775 226.109C267.645 226.021 267.602 225.947 267.602 225.89C267.602 225.834 267.645 225.759 267.775 225.672C267.902 225.586 268.095 225.501 268.351 225.417C268.861 225.252 269.603 225.101 270.525 224.974C272.367 224.721 274.915 224.564 277.731 224.564C280.547 224.564 283.095 224.721 284.937 224.974C285.859 225.101 286.601 225.252 287.111 225.417C287.367 225.501 287.56 225.586 287.687 225.672C287.817 225.759 287.86 225.834 287.86 225.89Z" fill="#FEC400" stroke="#FFF1B1" stroke-width="0.15479"/>
<path opacity="0.1" d="M326.955 229.861C326.955 229.918 326.913 229.992 326.782 230.08C326.655 230.166 326.462 230.251 326.207 230.334C325.697 230.5 324.954 230.651 324.033 230.777C322.19 231.031 319.642 231.188 316.826 231.188C314.01 231.188 311.462 231.031 309.62 230.777C308.698 230.651 307.956 230.5 307.446 230.334C307.19 230.251 306.998 230.166 306.87 230.08C306.74 229.992 306.697 229.918 306.697 229.861C306.697 229.805 306.74 229.731 306.87 229.643C306.998 229.557 307.19 229.472 307.446 229.389C307.956 229.223 308.698 229.072 309.62 228.946C311.462 228.692 314.01 228.535 316.826 228.535C319.642 228.535 322.19 228.692 324.033 228.946C324.954 229.072 325.697 229.223 326.207 229.389C326.462 229.472 326.655 229.557 326.782 229.643C326.913 229.731 326.955 229.805 326.955 229.861Z" fill="#FEC400" stroke="#FFF1B1" stroke-width="0.15479"/>
<path opacity="0.1" d="M308.356 241.168C308.356 241.196 308.334 241.243 308.243 241.304C308.155 241.363 308.02 241.423 307.839 241.482C307.479 241.6 306.953 241.706 306.298 241.796C304.989 241.976 303.179 242.088 301.178 242.088C299.177 242.088 297.367 241.976 296.059 241.796C295.404 241.706 294.878 241.6 294.517 241.482C294.336 241.423 294.202 241.363 294.114 241.304C294.022 241.243 294 241.196 294 241.168C294 241.139 294.022 241.092 294.114 241.031C294.202 240.972 294.336 240.912 294.517 240.853C294.878 240.735 295.404 240.629 296.059 240.539C297.367 240.359 299.177 240.247 301.178 240.247C303.179 240.247 304.989 240.359 306.298 240.539C306.953 240.629 307.479 240.735 307.839 240.853C308.02 240.912 308.155 240.972 308.243 241.031C308.334 241.092 308.356 241.139 308.356 241.168Z" fill="#FEC400" stroke="#FFF1B1" stroke-width="0.15479"/>
<path opacity="0.1" d="M348.932 240.17C348.932 240.198 348.911 240.245 348.819 240.307C348.731 240.366 348.596 240.426 348.416 240.485C348.055 240.602 347.529 240.709 346.874 240.799C345.566 240.979 343.756 241.09 341.754 241.09C339.753 241.09 337.943 240.979 336.635 240.799C335.98 240.709 335.454 240.602 335.093 240.485C334.912 240.426 334.778 240.366 334.69 240.307C334.598 240.245 334.577 240.198 334.577 240.17C334.577 240.141 334.598 240.094 334.69 240.033C334.778 239.974 334.912 239.914 335.093 239.855C335.454 239.738 335.98 239.631 336.635 239.541C337.943 239.361 339.753 239.249 341.754 239.249C343.756 239.249 345.566 239.361 346.874 239.541C347.529 239.631 348.055 239.738 348.416 239.855C348.596 239.914 348.731 239.974 348.819 240.033C348.911 240.094 348.932 240.141 348.932 240.17Z" fill="#FEC400" stroke="#FFF1B1" stroke-width="0.15479"/>
<path d="M352.001 153.134L352.002 153.134C353.62 153.566 355.125 154.344 356.413 155.416C357.701 156.488 358.741 157.828 359.461 159.342C360.553 161.703 361.001 164.797 359.246 168.425C357.489 172.056 353.52 176.229 345.759 180.73C332.739 188.281 325.821 197.238 322.158 204.31C320.327 207.846 319.31 210.91 318.75 213.091C318.471 214.182 318.305 215.051 318.21 215.649C318.162 215.948 318.132 216.179 318.114 216.335C318.104 216.413 318.098 216.473 318.094 216.513L318.09 216.558L318.089 216.57L318.089 216.573L318.089 216.573L318.089 216.574L317.004 229.132C316.991 229.089 316.978 229.043 316.963 228.993C316.863 228.644 316.717 228.131 316.538 227.47C316.179 226.149 315.685 224.24 315.143 221.891C314.06 217.192 312.789 210.731 312.035 203.683C311.281 196.634 311.044 189 312.029 181.955C313.014 174.908 315.22 168.457 319.344 163.767C331.701 149.713 345.721 151.396 352.001 153.134Z" fill="#FEC400" stroke="#FFF1B1" stroke-width="0.15479"/>
<path d="M349.78 159.726C349.78 159.726 307.586 172.942 317.045 229.547L349.78 159.726Z" fill="#FEC400"/>
<path d="M349.78 159.726C349.78 159.726 307.586 172.942 317.045 229.547" stroke="#FFF1B1" stroke-width="0.15479" stroke-miterlimit="10"/>
<path d="M325.136 164.463C325.136 164.463 330.946 168.386 329.099 174.279L325.136 164.463Z" fill="#FEC400"/>
<path d="M325.136 164.463C325.136 164.463 330.946 168.386 329.099 174.279" stroke="#FFF1B1" stroke-width="0.15479" stroke-miterlimit="10"/>
<path d="M345.549 167.954C345.549 167.954 341.997 164.335 337.674 166.332L345.549 167.954Z" fill="#FEC400"/>
<path d="M345.549 167.954C345.549 167.954 341.997 164.335 337.674 166.332" stroke="#FFF1B1" stroke-width="0.15479" stroke-miterlimit="10"/>
<path d="M328.87 186.158C328.87 186.158 322.633 182.987 321.02 186.958L328.87 186.158Z" fill="#FEC400"/>
<path d="M328.87 186.158C328.87 186.158 322.633 182.987 321.02 186.958" stroke="#FFF1B1" stroke-width="0.15479" stroke-miterlimit="10"/>
<path d="M340.504 209.467L340.503 209.468C338.14 214.9 331.803 225.204 316.615 229.795C316.644 229.736 316.681 229.661 316.726 229.571C316.849 229.322 317.032 228.955 317.265 228.489C317.733 227.556 318.405 226.225 319.227 224.63C320.87 221.439 323.109 217.193 325.492 212.971C327.875 208.748 330.401 204.551 332.617 201.457C333.726 199.909 334.755 198.641 335.649 197.783C336.097 197.354 336.507 197.03 336.875 196.826C337.244 196.621 337.561 196.54 337.824 196.583C338.892 196.756 339.674 197.369 340.247 198.209C340.822 199.052 341.185 200.121 341.412 201.199C341.974 203.982 341.656 206.872 340.504 209.467Z" fill="#FEC400" stroke="#FFF1B1" stroke-width="0.15479"/>
<path d="M337.712 202.99C337.712 202.99 320.115 228.549 316.716 229.671L337.712 202.99Z" fill="#FEC400"/>
<path d="M337.712 202.99C337.712 202.99 320.115 228.549 316.716 229.671" stroke="#FFF1B1" stroke-width="0.15479" stroke-miterlimit="10"/>
<path d="M316.816 229.795C301.628 225.204 295.291 214.9 292.928 209.468L292.928 209.467C291.775 206.872 291.458 203.982 292.02 201.199C292.246 200.121 292.609 199.052 293.184 198.209C293.757 197.369 294.539 196.756 295.607 196.583C295.871 196.54 296.187 196.621 296.556 196.826C296.924 197.03 297.335 197.354 297.782 197.783C298.676 198.641 299.705 199.909 300.814 201.457C303.031 204.551 305.556 208.748 307.939 212.971C310.322 217.193 312.561 221.439 314.204 224.63C315.026 226.225 315.699 227.556 316.166 228.489C316.4 228.955 316.582 229.322 316.706 229.571C316.75 229.661 316.787 229.736 316.816 229.795Z" fill="#FEC400" stroke="#FFF1B1" stroke-width="0.15479"/>
<path d="M295.72 202.99C295.72 202.99 313.316 228.549 316.716 229.671L295.72 202.99Z" fill="#FEC400"/>
<path d="M295.72 202.99C295.72 202.99 313.316 228.549 316.716 229.671" stroke="#FFF1B1" stroke-width="0.15479" stroke-miterlimit="10"/>
<path d="M345.701 237.839L345.701 237.839L345.698 237.842C345.029 238.453 344.282 238.971 343.475 239.382H339.901C339.88 239.325 339.854 239.27 339.824 239.217L339.825 239.216L339.821 239.212C339.505 238.733 339.085 238.331 338.593 238.038L338.593 238.038L338.59 238.036C337.964 237.691 337.401 237.239 336.927 236.702C336.706 236.438 336.58 236.106 336.569 235.761C336.558 235.418 336.661 235.082 336.862 234.805C337.075 234.627 337.324 234.496 337.59 234.42C337.86 234.344 338.143 234.325 338.421 234.365L338.421 234.366L338.435 234.365C338.768 234.355 339.098 234.432 339.392 234.589C339.607 234.765 339.777 234.992 339.886 235.248C339.995 235.507 340.04 235.789 340.016 236.069C339.96 236.658 339.968 237.252 340.04 237.84L340.194 237.831C340.201 236.25 340.563 234.524 341.824 233.635C342.019 233.497 342.263 233.392 342.495 233.365C342.726 233.337 342.937 233.387 343.085 233.544C343.193 233.675 343.264 233.833 343.291 234.001L343.291 234.001L343.291 234.004C343.377 234.434 343.349 234.879 343.212 235.295C343.075 235.711 342.832 236.084 342.508 236.379L342.386 236.49L342.549 236.512C342.897 236.561 343.22 236.453 343.513 236.284C343.806 236.115 344.078 235.88 344.325 235.666C344.571 235.453 344.851 235.245 345.143 235.119C345.433 234.994 345.726 234.952 346.006 235.058C346.251 235.182 346.446 235.386 346.56 235.636C346.674 235.887 346.698 236.169 346.629 236.436C346.469 236.987 346.145 237.476 345.701 237.839Z" fill="#FEC400" stroke="#FFF1B1" stroke-width="0.15479"/>
<path d="M281.821 224.08L281.821 224.08L281.817 224.083C281.149 224.694 280.401 225.212 279.595 225.623H276.021C276 225.566 275.974 225.511 275.944 225.458L275.944 225.458L275.941 225.453C275.625 224.974 275.205 224.573 274.713 224.279L274.713 224.279L274.71 224.278C274.084 223.932 273.521 223.481 273.047 222.944C272.826 222.679 272.7 222.347 272.689 222.002C272.678 221.659 272.781 221.323 272.982 221.046C273.195 220.868 273.443 220.738 273.71 220.662C273.98 220.585 274.263 220.566 274.541 220.606L274.541 220.607L274.555 220.607C274.888 220.596 275.218 220.673 275.512 220.83C275.727 221.007 275.897 221.233 276.005 221.49C276.115 221.748 276.16 222.03 276.136 222.31C276.079 222.9 276.087 223.493 276.16 224.081L276.314 224.072C276.321 222.491 276.682 220.765 277.944 219.876C278.139 219.739 278.383 219.634 278.615 219.606C278.846 219.579 279.057 219.628 279.205 219.785C279.313 219.916 279.384 220.074 279.411 220.242L279.41 220.242L279.411 220.246C279.496 220.675 279.469 221.12 279.332 221.536C279.195 221.952 278.952 222.325 278.628 222.62L278.506 222.731L278.669 222.754C279.017 222.802 279.339 222.695 279.633 222.525C279.926 222.356 280.198 222.121 280.445 221.907C280.691 221.694 280.971 221.487 281.263 221.361C281.552 221.235 281.846 221.193 282.126 221.299C282.371 221.423 282.566 221.627 282.68 221.877C282.793 222.128 282.818 222.41 282.749 222.677C282.589 223.228 282.265 223.718 281.821 224.08Z" fill="#FEC400" stroke="#FFF1B1" stroke-width="0.15479"/>
<path d="M303.111 237.839L303.111 237.839L303.107 237.842C302.439 238.453 301.692 238.971 300.885 239.382H297.311C297.29 239.325 297.264 239.27 297.234 239.217L297.234 239.216L297.231 239.212C296.915 238.733 296.495 238.331 296.003 238.038L296.003 238.038L296 238.036C295.374 237.691 294.811 237.239 294.337 236.702C294.116 236.438 293.99 236.106 293.979 235.761C293.968 235.418 294.071 235.082 294.272 234.805C294.485 234.627 294.733 234.496 295 234.42C295.27 234.344 295.553 234.325 295.831 234.365L295.831 234.366L295.845 234.365C296.178 234.355 296.508 234.432 296.802 234.589C297.017 234.765 297.187 234.992 297.295 235.248C297.405 235.507 297.45 235.789 297.426 236.069C297.369 236.658 297.378 237.252 297.45 237.84L297.604 237.831C297.611 236.25 297.973 234.524 299.234 233.635C299.429 233.497 299.673 233.392 299.905 233.365C300.136 233.337 300.347 233.387 300.495 233.544C300.603 233.675 300.674 233.833 300.701 234.001L300.701 234.001L300.701 234.004C300.786 234.434 300.759 234.879 300.622 235.295C300.485 235.711 300.242 236.084 299.918 236.379L299.796 236.49L299.959 236.512C300.307 236.561 300.63 236.453 300.923 236.284C301.216 236.115 301.488 235.88 301.735 235.666C301.981 235.453 302.261 235.245 302.553 235.119C302.842 234.994 303.136 234.952 303.416 235.058C303.661 235.182 303.856 235.386 303.97 235.636C304.084 235.887 304.108 236.169 304.039 236.436C303.879 236.987 303.555 237.476 303.111 237.839Z" fill="#FEC400" stroke="#FFF1B1" stroke-width="0.15479"/>
<path d="M25.0858 236.286C25.0858 236.286 29.7219 220.519 24.2149 208.911C21.8742 204.058 21.1682 198.576 22.2028 193.287C22.7135 190.78 23.4524 188.326 24.4101 185.954" stroke="#A2A2A2" stroke-width="0.15479" stroke-miterlimit="10"/>
<path d="M20.9902 178.618C20.9902 180.55 24.4851 186.138 24.4851 186.138C24.4851 186.138 27.98 180.535 27.98 178.618C27.9503 177.709 27.5693 176.848 26.9174 176.217C26.2656 175.585 25.3941 175.231 24.487 175.231C23.5799 175.231 22.7084 175.585 22.0566 176.217C21.4048 176.848 21.0237 177.709 20.994 178.618H20.9902Z" fill="#FEC400"/>
<path d="M15.2131 189.323C16.2604 190.944 22.2329 193.749 22.2329 193.749C22.2329 193.749 22.124 187.142 21.0767 185.522C20.557 184.781 19.771 184.271 18.8838 184.098C17.9967 183.926 17.0773 184.104 16.3186 184.596C15.5599 185.088 15.0209 185.855 14.8148 186.737C14.6087 187.618 14.7514 188.545 15.2131 189.323Z" fill="#FEC400"/>
<path d="M15.4684 207.617C17.1915 208.486 23.7608 207.888 23.7608 207.888C23.7608 207.888 20.3372 202.248 18.6142 201.371C18.2031 201.15 17.7518 201.013 17.287 200.968C16.8221 200.924 16.3531 200.974 15.9077 201.114C15.4623 201.254 15.0495 201.483 14.6936 201.786C14.3378 202.088 14.0461 202.46 13.8359 202.877C13.6257 203.295 13.5011 203.751 13.4696 204.217C13.4381 204.684 13.5003 205.152 13.6525 205.594C13.8047 206.037 14.0437 206.444 14.3556 206.792C14.6675 207.14 15.0459 207.422 15.4684 207.621V207.617Z" fill="#FEC400"/>
<path d="M18.768 221.414C20.3184 222.565 26.8952 223.084 26.8952 223.084C26.8952 223.084 24.474 216.939 22.9236 215.789C22.5539 215.515 22.134 215.318 21.688 215.207C21.242 215.096 20.7786 215.074 20.3242 215.143C19.8698 215.212 19.4334 215.369 19.0398 215.607C18.6462 215.844 18.3032 216.157 18.0304 216.528C17.7575 216.898 17.5602 217.318 17.4496 217.765C17.339 218.212 17.3173 218.676 17.3858 219.131C17.4543 219.587 17.6116 220.024 17.8488 220.418C18.0859 220.812 18.3983 221.156 18.768 221.429V221.414Z" fill="#FEC400"/>
<path d="M29.5719 194.122C28.1867 195.468 21.7412 196.863 21.7412 196.863C21.7412 196.863 23.3216 190.448 24.7031 189.102C25.3676 188.453 26.262 188.096 27.1896 188.108C28.1171 188.121 29.0017 188.502 29.6488 189.167C30.296 189.833 30.6526 190.729 30.6403 191.658C30.628 192.587 30.2477 193.473 29.5831 194.122H29.5719Z" fill="#FEC400"/>
<path d="M33.2282 210.306C31.5051 211.175 24.9358 210.577 24.9358 210.577C24.9358 210.577 28.3594 204.936 30.0824 204.06C30.9062 203.672 31.8488 203.621 32.7096 203.918C33.5703 204.215 34.2813 204.837 34.6912 205.652C35.1011 206.466 35.1776 207.408 34.9044 208.278C34.6311 209.148 34.0297 209.877 33.2282 210.31V210.306Z" fill="#FEC400"/>
<path d="M34.6282 226.528C33.0778 227.679 26.501 228.198 26.501 228.198C26.501 228.198 28.9222 222.053 30.4726 220.903C31.2193 220.351 32.1543 220.118 33.072 220.257C33.9897 220.396 34.8148 220.894 35.3658 221.642C35.9169 222.39 36.1488 223.326 36.0104 224.245C35.8721 225.165 35.3749 225.991 34.6282 226.543V226.528Z" fill="#FEC400"/>
<path d="M149.788 47.8182C156.629 47.8182 162.176 42.2625 162.176 35.4091C162.176 28.5557 156.629 23 149.788 23C142.946 23 137.4 28.5557 137.4 35.4091C137.4 42.2625 142.946 47.8182 149.788 47.8182Z" fill="#FEC400"/>
<path d="M184.877 177.989H169.935C169.935 177.989 170.88 170.342 171.475 168.694C172.042 167.099 172.556 164.749 177.419 164.749C181.824 164.749 183.094 166.829 183.58 168.694C184.04 170.558 184.877 177.989 184.877 177.989Z" fill="white"/>
<path d="M256.483 207.739H272.371L270.263 199.579H256.483V207.739Z" fill="#EDAE10"/>
<path d="M60.6886 231.004C59.2835 226.491 59.7969 221.601 61.6884 217.277C62.1747 216.169 62.6341 215.143 62.9854 214.548C64.2013 212.576 67.4438 209.117 69.3083 207.739C70.9295 206.523 74.7935 205.091 76.739 204.523C82.1162 202.956 98.8963 201.065 98.8963 201.065L113.866 199.714L125.755 193.066C125.755 193.066 138.401 185.771 142.832 183.771C149.453 180.772 162.315 177.556 171.204 177.556C191.443 177.556 202.225 177.935 212.222 180.231C217.843 181.528 234.082 187.581 234.082 187.581L252.43 194.012C252.43 194.012 264.778 193.066 268.021 195.255C269.21 196.039 270.534 200.335 270.534 200.335L260.104 200.551L262.103 206.766L272.02 207.144L273.668 210.063C275.695 213.683 276.424 217.926 275.641 222.006C274.911 225.789 273.641 230.004 271.533 231.517C268.669 233.571 249.16 234.733 249.16 234.733C249.16 234.733 250.565 214.305 230.948 213.819C221.112 213.575 214.114 220.682 212.952 227.545C212.574 229.761 212.222 236.462 212.222 236.462L113.893 237.948C113.866 237.948 113.893 237.948 113.893 237.948H113.866V236.813C113.623 230.247 111.38 214.575 93.8974 214.575C74.6044 214.575 75.7123 237.867 75.7123 237.867C75.7123 237.867 66.2279 237.408 63.3907 235.354C62.0937 234.409 61.256 232.787 60.6886 231.004Z" fill="#FEC400"/>
<path d="M178.5 197.039L179.446 181.745C179.446 181.745 195.091 181.637 201.63 182.988C203.927 183.474 209.601 185.906 214.249 188.662C219.95 192.04 224.409 196.093 224.409 196.093L178.5 197.039Z" fill="#272425"/>
<path d="M170.583 197.768L172.718 181.664C172.718 181.664 164.692 181.664 156.316 183.717C144.94 186.501 126.566 200.011 126.566 200.011L170.583 197.768Z" fill="#272425"/>
<path d="M170.583 197.768L167.8 230.166" stroke="#FEC400" stroke-width="0.5" stroke-miterlimit="10"/>
<path d="M212.682 229.626L113.218 231.247" stroke="#FEC400" stroke-width="0.5" stroke-miterlimit="10"/>
<path d="M126.566 200.011L121.729 230.437" stroke="#FEC400" stroke-width="0.5" stroke-miterlimit="10"/>
<path d="M224.409 196.12L223.355 214.818" stroke="#FEC400" stroke-width="0.5" stroke-miterlimit="10"/>
<path d="M210.279 206.704H218.628V203.678H210.279V206.704Z" fill="#FEC400"/>
<path d="M156.805 206.704H165.154V203.678H156.805V206.704Z" fill="#FEC400"/>
<path d="M69.3082 207.739H78.8736C80.0895 207.739 80.711 209.171 79.9274 210.063C75.7662 214.764 69.7675 217.413 63.4716 217.304L61.6882 217.277C61.6882 217.277 63.6608 211.711 69.3082 207.739Z" fill="white"/>
<path d="M214.087 232.463C214.087 241.596 221.463 249 230.569 249C239.676 249 247.052 241.596 247.052 232.463C247.052 223.33 239.676 215.926 230.569 215.926C221.463 215.926 214.087 223.33 214.087 232.463Z" fill="#272425"/>
<path d="M223.598 232.463C223.598 236.327 226.733 239.462 230.597 239.462C234.461 239.462 237.595 236.327 237.595 232.463C237.595 228.599 234.461 225.465 230.597 225.465C226.706 225.438 223.598 228.572 223.598 232.463Z" fill="#CFD1D2"/>
<path d="M78.1711 232.463C78.1711 241.596 85.5479 249 94.654 249C103.76 249 111.137 241.596 111.137 232.463C111.137 223.33 103.76 215.926 94.654 215.926C85.5479 215.926 78.1711 223.33 78.1711 232.463Z" fill="#272425"/>
<path d="M87.6555 232.463C87.6555 236.327 90.79 239.462 94.654 239.462C98.518 239.462 101.652 236.327 101.652 232.463C101.652 228.599 98.518 225.465 94.654 225.465C90.79 225.438 87.6555 228.572 87.6555 232.463Z" fill="#CFD1D2"/>
<path d="M117.937 260.552C117.938 260.494 117.934 260.436 117.919 260.377C117.043 256.9 112.696 254.735 112.696 254.735L110.973 254.87C109.983 257.934 110.11 259.814 110.27 260.651C110.274 260.674 110.281 260.696 110.287 260.719C111.708 260.846 114.633 260.929 117.937 260.552Z" fill="#FFF1B1"/>
<path d="M110.287 260.715C110.364 260.994 110.57 261.212 110.834 261.268C112.855 261.694 116.068 261.351 117.417 261.174C117.714 261.135 117.932 260.86 117.937 260.548C114.633 260.925 111.708 260.842 110.287 260.715Z" fill="url(#paint0_linear_48_947)"/>
<path d="M110.281 252.296L111.011 255.812C111.064 256.07 111.261 256.262 111.501 256.285C111.795 256.313 112.212 256.329 112.632 256.267C113.008 256.212 113.27 255.829 113.203 255.418L112.696 252.296H110.281Z" fill="url(#paint1_linear_48_947)"/>
<path d="M125.398 260.674C123.495 260.621 122.511 260.397 122.002 260.188C122.001 260.378 122.002 260.571 122.008 260.771C122.015 260.984 122.173 261.154 122.367 261.153L132.813 261.086C133.146 261.084 133.341 260.696 133.197 260.39C131.828 260.503 128.339 260.756 125.398 260.674Z" fill="url(#paint2_linear_48_947)"/>
<path d="M133.196 260.39C133.184 260.364 133.173 260.336 133.155 260.311C132.233 259.02 129.883 256.451 125.24 255.336L123.012 255.266C123.012 255.266 122.02 256.992 122.002 260.188C122.511 260.397 123.495 260.621 125.397 260.674C128.339 260.756 131.827 260.503 133.196 260.39Z" fill="#FFF1B1"/>
<path d="M122.501 251.992C122.536 252.156 123 254.658 123.179 255.628C123.222 255.859 123.401 256.028 123.615 256.04C123.996 256.061 124.611 256.064 125.14 255.92C125.426 255.842 125.618 255.551 125.597 255.227L125.348 251.27L122.501 251.992Z" fill="url(#paint3_linear_48_947)"/>
<path d="M120.813 205.79C120.813 205.79 123.877 226.868 126.088 251.951C126.129 252.418 125.757 252.825 125.299 252.921C124.623 253.064 123.631 253.233 122.809 253.21C122.37 253.198 122.003 252.872 121.929 252.439C121.176 248.016 115.801 224.281 114.39 219.057C114.39 219.057 112.77 241.247 113.288 252.759C113.301 253.045 113.091 253.293 112.807 253.326C112.375 253.376 111.686 253.414 110.807 253.321C110.474 253.285 110.205 253.033 110.157 252.701C109.621 248.958 106.532 226.679 106.664 210.63C106.671 209.725 107.725 202.289 107.725 202.289L120.813 205.79Z" fill="#F5BF28"/>
<path d="M147.076 185.641C147.076 185.641 146.218 183.38 145.217 183.588C144.215 183.795 143.119 184.565 143.119 184.565L141.509 186.744C141.509 186.744 146.027 188.526 147.617 187.505C147.617 187.505 152.232 188.304 158.06 187.346C157.216 185.563 156.713 183.777 156.418 182.392C153.466 184.064 150.286 185.314 147.076 185.641Z" fill="url(#paint4_linear_48_947)"/>
<path d="M171.522 169.243C171.522 169.243 164.915 177.575 156.417 182.391C156.712 183.777 157.216 185.562 158.059 187.345C162.467 186.62 167.569 184.893 171.893 181.052L171.522 169.243Z" fill="#FFF1B1"/>
<path d="M122 170.344L122.41 181.374C123.575 181.776 124.684 182.088 125.741 182.321C126.402 180.191 127.856 177.577 129.047 175.634C124.671 174.085 122 170.344 122 170.344Z" fill="#F5BF28"/>
<path d="M143.853 170.151C137.848 176.641 132.989 177.023 129.048 175.629C127.856 177.572 126.402 180.186 125.741 182.315C141.775 185.855 145.551 171.097 145.551 171.097L143.853 170.151Z" fill="url(#paint5_linear_48_947)"/>
<path d="M107.264 207C106.949 206.888 106.729 206.601 106.695 206.269C106.287 202.311 104.315 177.772 116.77 167.679C116.77 167.679 117.484 165.808 123.355 170.407C129.226 175.006 126.083 179.826 124.677 186.475C122.976 194.521 119.992 201.097 121.312 206.048C121.403 206.39 121.224 206.748 120.892 206.871C116.332 208.554 111.789 208.609 107.264 207Z" fill="#FFE773"/>
<path d="M121.628 160.328C121.625 160.677 116.651 167.749 116.651 167.749C116.651 167.749 117.544 169.51 121.806 170.939L125.485 163.366L121.628 160.328Z" fill="url(#paint6_linear_48_947)"/>
<path d="M119.672 184.611C119.672 184.611 129.108 192.522 139.297 189.07C139.929 188.856 140.62 188.903 141.21 189.214L144.139 190.763C145.369 191.413 146.892 190.986 147.605 189.792C148.012 189.111 148.359 188.332 148.428 187.586L142.696 185.263L143.118 184.56C143.118 184.56 140.32 184.323 139.588 186.331C139.588 186.331 134.258 188.551 125.268 178.651C125.269 178.651 121.19 182.123 119.672 184.611Z" fill="url(#paint7_linear_48_947)"/>
<path d="M119.165 184.532C119.133 184.532 119.102 184.524 119.075 184.505C115.101 181.817 113.233 177.48 113.214 177.436C113.179 177.353 113.217 177.259 113.299 177.224C113.382 177.189 113.476 177.227 113.511 177.31C113.529 177.353 115.364 181.605 119.255 184.237C119.329 184.286 119.349 184.387 119.299 184.462C119.267 184.507 119.217 184.532 119.165 184.532Z" fill="#EDAE10"/>
<path d="M125.082 178.517C125.029 178.517 124.977 178.491 124.946 178.443C124.934 178.424 123.72 176.533 121.409 172.388C120.697 171.114 119.763 170.307 118.632 169.99C116.758 169.466 114.952 170.472 114.933 170.482C114.856 170.525 114.757 170.499 114.713 170.422C114.669 170.344 114.696 170.245 114.774 170.201C114.851 170.157 116.709 169.116 118.716 169.678C119.935 170.019 120.936 170.877 121.691 172.231C123.997 176.365 125.206 178.25 125.218 178.268C125.266 178.343 125.245 178.443 125.169 178.492C125.143 178.508 125.112 178.517 125.082 178.517Z" fill="#EDAE10"/>
<path d="M125.544 156.277C125.544 156.277 127.313 160.346 127.432 162.482C127.551 164.618 128.011 166.004 125.544 166.434C123.076 166.865 120.998 165.634 119.873 163.506C119.873 163.506 118.109 160.227 118.504 158.885C118.9 157.543 125.544 156.277 125.544 156.277Z" fill="url(#paint8_linear_48_947)"/>
<path d="M120.716 161.978L120.856 161.916C121.035 161.837 121.111 161.624 121.021 161.45C120.674 160.778 119.995 159.235 120.871 158.876C122.001 158.412 126.473 157.499 127.438 155.91C128.365 154.383 127.544 152.412 126.309 151.851C126.226 151.814 126.129 151.843 126.086 151.924L125.983 152.118C125.913 152.252 125.716 152.232 125.674 152.087C125.634 151.947 125.449 151.92 125.372 152.043C125.075 152.519 124.275 153.289 122.133 153.685C119.09 154.247 117.078 155.48 117.027 157.586C117.024 157.719 116.882 157.794 116.768 157.724C116.543 157.587 116.183 157.523 115.703 157.928C114.867 158.631 115.209 160.456 117.041 161.958C117.128 162.029 117.128 162.165 117.033 162.227C116.701 162.444 116.206 162.959 117.489 163.646C118.816 164.356 119.808 164.298 120.189 164.235C120.284 164.219 120.345 164.127 120.324 164.033L119.917 162.182C119.894 162.078 119.974 161.978 120.081 161.978H120.716V161.978Z" fill="url(#paint9_linear_48_947)"/>
<path d="M120.792 162.367C120.792 162.367 120.117 159.767 118.953 160.496C117.789 161.225 119.557 163.409 120.493 163.506L120.792 162.367Z" fill="url(#paint10_linear_48_947)"/>
<path d="M141.21 189.216C141.21 189.216 143.608 191.564 144.071 191.222C144.235 191.101 144.651 190.659 145.054 190.167C145.338 189.82 145.368 189.33 145.123 188.953L144.558 188.079C144.019 187.246 142.865 187.072 142.118 187.723C141.741 188.052 141.399 188.528 141.21 189.216Z" fill="url(#paint11_linear_48_947)"/>
<path d="M179.763 206.169C178.471 200.024 177.178 196.466 172.852 184.819C171.49 181.153 170.254 177.445 170.851 173.58L171.522 169.239C171.522 169.239 179.931 166.391 189.252 169.119C189.252 169.119 201.968 174.65 193.331 201.963C189.437 206.325 184.881 207.567 179.763 206.169Z" fill="#FFF1B1"/>
<path d="M172.954 163.701L175.134 168.945C175.272 169.277 175.569 169.513 175.923 169.573C177.18 169.789 180.221 170.126 182.217 168.812C182.455 168.655 182.516 168.331 182.353 168.097L178.325 162.308L172.954 163.701Z" fill="url(#paint12_linear_48_947)"/>
<path d="M175.209 155.676C175.117 155.762 171.344 163.18 171.344 163.18L175.62 165.247L180.24 158.748C180.239 158.748 176.742 154.231 175.209 155.676Z" fill="url(#paint13_linear_48_947)"/>
<path d="M178.296 159.529L176.163 163.089C176.131 163.142 176.092 163.192 176.046 163.234C175.792 163.471 174.924 164.159 174.253 163.222C173.68 162.424 173.143 161.698 172.568 161.398C172.232 161.223 171.818 161.363 171.647 161.701C171.296 162.399 170.615 163.82 170.188 165.168C170.08 165.505 170.254 165.868 170.583 166.001C171.449 166.352 173.16 166.987 174.679 167.197C174.928 167.231 175.175 167.126 175.324 166.922C175.977 166.026 177.818 163.522 178.447 162.895C179.031 162.313 180.108 162.532 180.594 162.672C180.778 162.725 180.975 162.699 181.139 162.6C181.631 162.303 182.491 161.563 181.705 160.31C181.509 159.999 181.609 159.584 181.916 159.382C182.466 159.02 183.063 158.34 182.494 157.239C181.918 156.124 180.891 156.024 180.191 156.11C179.881 156.148 179.566 155.985 179.448 155.696C179.395 155.567 179.29 155.458 179.096 155.418C178.728 155.344 178.488 155.008 178.56 154.64C178.684 154.009 178.591 153.19 177.584 152.636C175.739 151.62 174.123 153.275 173.712 154.672C173.301 156.069 175.364 157.056 176.662 157.221C177.615 157.342 178.138 158.383 178.348 158.928C178.424 159.127 178.405 159.347 178.296 159.529Z" fill="url(#paint14_linear_48_947)"/>
<path d="M177.646 164.207C177.646 164.207 178.466 161.803 179.517 161.891C180.567 161.979 181.394 163.026 180.092 164.204C178.473 165.669 177.646 164.207 177.646 164.207Z" fill="url(#paint15_linear_48_947)"/>
<path d="M178.935 260.334C180.965 260.51 184.49 260.795 187.269 260.918C188.939 260.991 189.9 260.828 190.454 260.606C190.453 260.669 190.452 260.727 190.449 260.783C190.437 261.075 190.198 261.309 189.903 261.326C184.653 261.619 180.478 261.428 178.991 261.337C178.684 261.318 178.5 260.984 178.658 260.721C178.736 260.589 178.831 260.461 178.935 260.334Z" fill="#F5C73F"/>
<path d="M187.269 260.919C184.49 260.797 180.966 260.511 178.935 260.336C180.931 257.883 187.269 256.23 187.269 256.23H189.059C190.29 258.007 190.468 259.698 190.455 260.607C189.901 260.829 188.939 260.993 187.269 260.919Z" fill="#FFF1B1"/>
<path d="M189.36 253.301L189.192 256.619C189.174 256.978 188.905 257.28 188.546 257.332C188.189 257.383 187.709 257.39 187.201 257.22C186.889 257.116 186.657 256.853 186.599 256.531L186.02 253.301H189.36Z" fill="url(#paint16_linear_48_947)"/>
<path d="M212.608 260.878C213.489 260.755 213.887 260.297 214.054 259.808C214.056 259.812 214.057 259.816 214.057 259.821C214.187 260.338 213.887 260.873 213.286 261.128C212.56 261.435 211.767 261.488 211.151 261.462C210.49 261.435 209.883 261.161 209.55 260.723L209.545 260.716C210.208 261.044 211.139 261.083 212.608 260.878Z" fill="#F5C73F"/>
<path d="M208.455 253.265H209.932C212.18 253.22 213.592 257.967 214.054 259.806C213.887 260.295 213.489 260.754 212.608 260.876C211.139 261.081 210.208 261.043 209.544 260.714C208.329 259.113 207.727 256.77 207.438 255.402C207.109 253.847 208.455 253.265 208.455 253.265Z" fill="#FFF1B1"/>
<path d="M209.742 250.186L210.562 253.45C210.662 253.85 210.471 254.264 210.101 254.454C209.643 254.689 208.997 254.937 208.404 254.865C208.125 254.832 207.893 254.635 207.801 254.372L206.598 250.938L209.742 250.186Z" fill="url(#paint17_linear_48_947)"/>
<path d="M210.72 251.136C209.701 252.042 206.383 252.162 206.383 252.162C194.435 223.452 189.454 215.548 189.454 215.548C191.179 226.385 189.826 254.2 189.826 254.2C187.854 255.071 185.313 254.2 185.313 254.2C185.152 236.46 182.658 217.397 179.44 205.199C187.516 205.018 191.904 203.255 193.307 202.145C200.037 213.01 210.72 251.136 210.72 251.136Z" fill="#EDAE10"/>
<path d="M143.345 168.888C143.345 168.888 142.82 167.937 142.876 167.173C142.933 166.408 142.456 165.284 142.963 165.367C143.47 165.451 143.575 165.383 143.712 166.301C143.849 167.218 145.086 170.604 143.345 168.888Z" fill="url(#paint18_linear_48_947)"/>
<path d="M147.173 163.208C147.167 163.065 147.098 162.931 146.984 162.843C146.87 162.756 146.723 162.724 146.583 162.756L143.088 163.552C142.952 163.582 142.862 163.71 142.877 163.849L143.893 172.942C143.897 172.981 143.918 173.016 143.948 173.041C143.979 173.066 144.019 173.077 144.058 173.072L147.108 172.702C147.358 172.672 147.543 172.454 147.533 172.202L147.173 163.208Z" fill="url(#paint19_linear_48_947)"/>
<path d="M146.19 163.731C146.186 163.65 146.145 163.574 146.079 163.526C146.014 163.478 145.93 163.461 145.851 163.481L143.552 164.056C143.419 164.089 143.331 164.216 143.346 164.352L144.218 172.096C144.222 172.136 144.244 172.173 144.276 172.197C144.309 172.222 144.35 172.232 144.391 172.224L146.511 171.846C146.584 171.833 146.636 171.767 146.633 171.693L146.19 163.731Z" fill="url(#paint20_linear_48_947)"/>
<path d="M144.869 163.52C144.874 163.547 144.837 163.578 144.785 163.589L144.016 163.748C143.964 163.759 143.917 163.746 143.912 163.718L143.906 163.691C143.901 163.664 143.938 163.633 143.99 163.622L144.759 163.463C144.811 163.452 144.858 163.466 144.863 163.493L144.869 163.52Z" fill="url(#paint21_linear_48_947)"/>
<path d="M148.387 165.52C147.822 165.312 146.717 163.397 146.506 164.027C146.295 164.657 146.595 165.52 146.506 165.788C146.417 166.055 145.805 167.543 146.081 168.228C146.279 168.721 146.606 170.241 146.774 171.049C146.829 171.318 147.065 171.509 147.338 171.51C147.612 171.51 147.848 171.318 147.904 171.05C147.925 170.942 148.951 165.728 148.387 165.52Z" fill="url(#paint22_linear_48_947)"/>
<path d="M185.358 197.797C185.087 197.854 184.87 198.022 184.765 198.256L183.314 201.497C183.122 201.927 183.354 202.457 183.836 202.695L191.191 206.317C191.443 206.442 191.73 206.467 191.98 206.386C192.23 206.305 192.419 206.126 192.501 205.893L193.355 203.457C193.488 203.079 193.312 202.637 192.931 202.387L186.172 197.96C185.927 197.799 185.629 197.74 185.358 197.797Z" fill="url(#paint23_linear_48_947)"/>
<path d="M197.854 191.186C199.426 179.295 190.272 170.151 190.272 170.151L184.827 176.507C188.961 181.667 190.927 186.395 191.825 190.109C193.015 189.761 195.882 189.213 197.854 191.186Z" fill="#FFF1B1"/>
<path d="M191.824 190.448C191.672 190.448 191.534 190.344 191.496 190.19C190.39 185.612 188.057 181.08 184.563 176.721C184.447 176.576 184.47 176.363 184.616 176.246C184.761 176.13 184.973 176.153 185.09 176.298C188.646 180.736 191.022 185.357 192.153 190.031C192.197 190.213 192.085 190.395 191.904 190.439C191.877 190.445 191.85 190.448 191.824 190.448Z" fill="url(#paint24_linear_48_947)"/>
<path d="M191.904 190.443C192.738 193.894 192.571 196.583 192.444 197.812C192.396 198.275 192.024 198.637 191.56 198.67C191.032 198.707 190.314 198.755 189.673 198.792C188.968 198.833 188.185 198.387 187.662 198.014C187.394 197.824 187.049 198.12 187.198 198.413C187.589 199.178 188.58 199.859 189.263 200.259C189.512 200.405 189.465 200.777 189.188 200.856L187.313 201.387C187.1 201.447 186.941 201.623 186.902 201.841C186.862 202.058 186.949 202.278 187.127 202.41C191.443 205.613 194.238 201.147 194.238 201.147C196.357 197.868 197.453 194.22 197.854 191.192C195.852 188.776 193.095 190.095 191.904 190.443Z" fill="url(#paint25_linear_48_947)"/>
</g>
<defs>
<filter id="filter0_d_48_947" x="0" y="0" width="364.5" height="284" filterUnits="userSpaceOnUse" color-interpolation-filters="sRGB">
<feFlood flood-opacity="0" result="BackgroundImageFix"/>
<feColorMatrix in="SourceAlpha" type="matrix" values="0 0 0 0 0 0 0 0 0 0 0 0 0 0 0 0 0 0 127 0" result="hardAlpha"/>
<feOffset dy="4"/>
<feGaussianBlur stdDeviation="2"/>
<feComposite in2="hardAlpha" operator="out"/>
<feColorMatrix type="matrix" values="0 0 0 0 0 0 0 0 0 0 0 0 0 0 0 0 0 0 0.25 0"/>
<feBlend mode="normal" in2="BackgroundImageFix" result="effect1_dropShadow_48_947"/>
<feBlend mode="normal" in="SourceGraphic" in2="effect1_dropShadow_48_947" result="shape"/>
</filter>
<linearGradient id="paint0_linear_48_947" x1="129.629" y1="248.592" x2="101.313" y2="270.801" gradientUnits="userSpaceOnUse">
<stop stop-color="#53D8FF"/>
<stop offset="1" stop-color="#3840F7"/>
</linearGradient>
<linearGradient id="paint1_linear_48_947" x1="112.323" y1="248.911" x2="110.834" y2="261.89" gradientUnits="userSpaceOnUse">
<stop stop-color="#F9B776"/>
<stop offset="1" stop-color="#F47960"/>
</linearGradient>
<linearGradient id="paint2_linear_48_947" x1="134.655" y1="254.994" x2="106.339" y2="277.203" gradientUnits="userSpaceOnUse">
<stop stop-color="#53D8FF"/>
<stop offset="1" stop-color="#3840F7"/>
</linearGradient>
<linearGradient id="paint3_linear_48_947" x1="124.221" y1="250.289" x2="123.552" y2="263.336" gradientUnits="userSpaceOnUse">
<stop stop-color="#F9B776"/>
<stop offset="1" stop-color="#F47960"/>
</linearGradient>
<linearGradient id="paint4_linear_48_947" x1="141.509" y1="185.106" x2="158.059" y2="185.106" gradientUnits="userSpaceOnUse">
<stop stop-color="#F9B776"/>
<stop offset="1" stop-color="#F47960"/>
</linearGradient>
<linearGradient id="paint5_linear_48_947" x1="151.78" y1="169.224" x2="125.804" y2="182.131" gradientUnits="userSpaceOnUse">
<stop stop-color="#F9B776"/>
<stop offset="1" stop-color="#F47960"/>
</linearGradient>
<linearGradient id="paint6_linear_48_947" x1="118.249" y1="173.262" x2="121.706" y2="163.833" gradientUnits="userSpaceOnUse">
<stop stop-color="#F9B776"/>
<stop offset="1" stop-color="#F47960"/>
</linearGradient>
<linearGradient id="paint7_linear_48_947" x1="135.346" y1="184.233" x2="109.652" y2="228.827" gradientUnits="userSpaceOnUse">
<stop stop-color="#F9B776"/>
<stop offset="1" stop-color="#F47960"/>
</linearGradient>
<linearGradient id="paint8_linear_48_947" x1="126.729" y1="159.115" x2="106.155" y2="175.483" gradientUnits="userSpaceOnUse">
<stop stop-color="#F9B776"/>
<stop offset="1" stop-color="#F47960"/>
</linearGradient>
<linearGradient id="paint9_linear_48_947" x1="118.793" y1="153.724" x2="128.229" y2="165.858" gradientUnits="userSpaceOnUse">
<stop stop-color="#2B3582"/>
<stop offset="1" stop-color="#150E42"/>
</linearGradient>
<linearGradient id="paint10_linear_48_947" x1="124.66" y1="158.216" x2="114.535" y2="165.954" gradientUnits="userSpaceOnUse">
<stop stop-color="#F9B776"/>
<stop offset="1" stop-color="#F47960"/>
</linearGradient>
<linearGradient id="paint11_linear_48_947" x1="141.21" y1="189.292" x2="145.288" y2="189.292" gradientUnits="userSpaceOnUse">
<stop stop-color="#F9B776"/>
<stop offset="1" stop-color="#F47960"/>
</linearGradient>
<linearGradient id="paint12_linear_48_947" x1="176.877" y1="171.534" x2="180.387" y2="148.228" gradientUnits="userSpaceOnUse">
<stop stop-color="#F9B776"/>
<stop offset="1" stop-color="#F47960"/>
</linearGradient>
<linearGradient id="paint13_linear_48_947" x1="176.451" y1="157.078" x2="173.795" y2="172.69" gradientUnits="userSpaceOnUse">
<stop stop-color="#F9B776"/>
<stop offset="1" stop-color="#F47960"/>
</linearGradient>
<linearGradient id="paint14_linear_48_947" x1="179.238" y1="164.469" x2="171.419" y2="156.172" gradientUnits="userSpaceOnUse">
<stop stop-color="#2B3582"/>
<stop offset="1" stop-color="#150E42"/>
</linearGradient>
<linearGradient id="paint15_linear_48_947" x1="178.751" y1="174.124" x2="179.223" y2="163.161" gradientUnits="userSpaceOnUse">
<stop stop-color="#F9B776"/>
<stop offset="1" stop-color="#F47960"/>
</linearGradient>
<linearGradient id="paint16_linear_48_947" x1="189.36" y1="255.332" x2="186.021" y2="255.332" gradientUnits="userSpaceOnUse">
<stop stop-color="#F9B776"/>
<stop offset="1" stop-color="#F47960"/>
</linearGradient>
<linearGradient id="paint17_linear_48_947" x1="210.588" y1="252.532" x2="206.598" y2="252.532" gradientUnits="userSpaceOnUse">
<stop stop-color="#F9B776"/>
<stop offset="1" stop-color="#F47960"/>
</linearGradient>
<linearGradient id="paint18_linear_48_947" x1="144.507" y1="165.922" x2="140.763" y2="171.198" gradientUnits="userSpaceOnUse">
<stop stop-color="#F9B776"/>
<stop offset="1" stop-color="#F47960"/>
</linearGradient>
<linearGradient id="paint19_linear_48_947" x1="148.79" y1="162.989" x2="135.678" y2="181.468" gradientUnits="userSpaceOnUse">
<stop stop-color="#2B3582"/>
<stop offset="1" stop-color="#150E42"/>
</linearGradient>
<linearGradient id="paint20_linear_48_947" x1="147.889" y1="163.896" x2="137.326" y2="178.782" gradientUnits="userSpaceOnUse">
<stop stop-color="#FDF53F"/>
<stop offset="1" stop-color="#D93C65"/>
</linearGradient>
<linearGradient id="paint21_linear_48_947" x1="144.583" y1="163.387" x2="144.441" y2="164.311" gradientUnits="userSpaceOnUse">
<stop stop-color="#8D55D1"/>
<stop offset="0.9964" stop-color="#1C2873"/>
</linearGradient>
<linearGradient id="paint22_linear_48_947" x1="149.087" y1="164.91" x2="141.338" y2="175.831" gradientUnits="userSpaceOnUse">
<stop stop-color="#F9B776"/>
<stop offset="1" stop-color="#F47960"/>
</linearGradient>
<linearGradient id="paint23_linear_48_947" x1="188.329" y1="196.983" x2="188.309" y2="216.441" gradientUnits="userSpaceOnUse">
<stop stop-color="#2B3582"/>
<stop offset="1" stop-color="#150E42"/>
</linearGradient>
<linearGradient id="paint24_linear_48_947" x1="202.855" y1="135.514" x2="178.741" y2="214.653" gradientUnits="userSpaceOnUse">
<stop stop-color="#FDF53F"/>
<stop offset="1" stop-color="#D93C65"/>
</linearGradient>
<linearGradient id="paint25_linear_48_947" x1="194.843" y1="191.801" x2="185.906" y2="208.969" gradientUnits="userSpaceOnUse">
<stop stop-color="#F9B776"/>
<stop offset="1" stop-color="#F47960"/>
</linearGradient>
</defs>
</svg>
